<?xml version="1.0" standalone="no"?>
<!DOCTYPE svg PUBLIC "-//W3C//DTD SVG 20010904//EN"
 "http://www.w3.org/TR/2001/REC-SVG-20010904/DTD/svg10.dtd">
<svg version="1.0" xmlns="http://www.w3.org/2000/svg"
 width="500.000000pt" height="500.000000pt" viewBox="0 0 500.000000 500.000000"
 preserveAspectRatio="xMidYMid meet">
<metadata>
Created by potrace 1.11, written by Peter Selinger 2001-2013
</metadata>
<g transform="translate(0.000000,500.000000) scale(0.100000,-0.100000)"
fill="#000000" stroke="none">
<path d="M0 2500 l0 -2500 2500 0 2500 0 0 2500 0 2500 -2500 0 -2500 0 0
-2500z m4276 1651 c68 -42 64 42 64 -1295 l0 -1206 48 0 c26 0 63 -5 82 -10
41 -11 94 -61 109 -103 18 -46 13 -141 -10 -202 -17 -45 -28 -60 -63 -80 -42
-25 -46 -25 -269 -25 -220 0 -226 1 -250 23 -25 22 -47 90 -47 143 l0 27 -42
-40 c-150 -137 -325 -203 -540 -203 -258 0 -441 75 -566 232 -197 249 -288
487 -299 781 -12 317 61 563 235 792 179 236 408 355 682 355 184 0 342 -51
472 -152 29 -23 59 -45 66 -51 9 -7 12 54 12 302 l0 311 -97 0 c-102 1 -159
14 -195 47 -63 56 -78 191 -30 283 45 88 52 90 352 90 232 0 258 -2 286 -19z
m-2678 -197 c42 -8 136 -35 207 -59 l130 -43 35 33 c43 41 77 55 136 55 51 0
76 -11 117 -48 52 -49 57 -92 57 -471 0 -328 -1 -347 -21 -387 -27 -56 -82
-84 -165 -84 -51 0 -64 4 -83 24 -27 29 -41 110 -41 245 0 147 -33 197 -177
270 -105 52 -203 75 -333 75 -137 1 -222 -21 -315 -82 -232 -151 -405 -530
-405 -887 0 -384 204 -797 454 -920 107 -53 209 -71 323 -57 148 19 231 55
434 192 106 71 189 120 204 120 58 0 135 -55 161 -117 24 -55 18 -141 -13
-204 -77 -154 -325 -319 -608 -405 -82 -25 -105 -27 -250 -28 -177 0 -241 11
-371 65 -344 143 -613 521 -696 979 -26 141 -31 503 -10 635 55 331 176 591
374 800 159 168 317 258 524 299 94 19 239 19 332 0z"/>
<path d="M3354 2910 c-186 -25 -345 -176 -414 -395 -32 -99 -40 -321 -16 -429
65 -290 303 -465 579 -426 142 20 260 97 346 226 73 108 102 207 108 365 9
210 -42 382 -149 504 -106 120 -275 178 -454 155z"/>
</g>
</svg>
